<?xml version="1.0"?>
<svg xmlns="http://www.w3.org/2000/svg" xmlns:xlink="http://www.w3.org/1999/xlink" xmlns:svgjs="http://svgjs.com/svgjs" version="1.1" width="512" height="512" x="0" y="0" viewBox="0 0 512 512" style="enable-background:new 0 0 512 512" xml:space="preserve" class=""><g transform="matrix(0.66,0,0,0.66,87.03997207403188,87.04000518798824)">
<circle xmlns="http://www.w3.org/2000/svg" style="" cx="256.002" cy="256.032" r="131.98" fill="#939393" data-original="#bef7f0" class=""/>
<g xmlns="http://www.w3.org/2000/svg">
	<polygon style="" points="292.81,258.274 377.103,229.089 501.963,49.119 462.917,10.073 253.763,219.227  " fill="#ffffff" data-original="#44c5cb" class=""/>
	<polygon style="" points="219.19,253.799 134.897,282.984 10.037,462.954 49.083,502 258.237,292.845  " fill="#ffffff" data-original="#44c5cb" class=""/>
</g>
<path xmlns="http://www.w3.org/2000/svg" style="" d="M282.159,230.006c-14.447-14.376-37.871-14.376-52.318,0c-14.447,14.376-14.447,37.685,0,52.061  c14.447,14.376,37.87,14.376,52.318,0C296.606,267.691,296.606,244.382,282.159,230.006z" fill="#53b6f2" data-original="#f25353" class=""/>
<path xmlns="http://www.w3.org/2000/svg" d="M509.033,42.049L469.988,3.002c-3.904-3.903-10.236-3.903-14.141,0l-47.398,47.399  C307.052-25.008,165.046-14.994,75.007,75.044c-14.449,14.45-27.122,30.54-37.668,47.828c-2.876,4.714-1.386,10.867,3.329,13.743  c1.626,0.992,3.422,1.465,5.197,1.465c3.372,0,6.661-1.705,8.545-4.792c9.722-15.935,21.409-30.772,34.739-44.101  C171.451,6.882,300.85-2.901,394.146,64.703l-24.405,24.405C332.44,63.65,287.385,51.406,241.965,54.552  c-48.575,3.363-94.31,24.2-128.78,58.67c-9.42,9.421-17.917,19.766-25.258,30.75c-3.068,4.591-1.833,10.8,2.758,13.869  c1.707,1.141,3.636,1.687,5.546,1.687c3.228,0,6.395-1.56,8.323-4.444c6.614-9.898,14.276-19.225,22.772-27.721  c60.729-60.73,156.903-70.164,227.994-23.832l-29.089,29.089c-25.405-14.451-55.051-20.777-84.368-17.859  c-32.494,3.234-63.128,17.753-86.258,40.884c-3.904,3.904-3.904,10.235,0,14.14c1.953,1.953,4.511,2.929,7.07,2.929  s5.118-0.977,7.07-2.929c37.49-37.49,95.302-46.059,141.717-22.395l-62.372,62.372c-9.633,1.414-18.905,5.798-26.303,13.16  c-6.559,6.527-10.934,14.646-12.781,23.481l-78.38,27.137c-2.004,0.694-3.735,2.007-4.944,3.749L1.822,457.255  c-2.757,3.973-2.275,9.35,1.145,12.769l39.046,39.046c1.953,1.952,4.511,2.929,7.07,2.929c2.559,0,5.118-0.977,7.07-2.929  l47.399-47.399C147.591,494.394,200.958,512,255.959,512c4.5,0,9.018-0.118,13.536-0.355  c63.214-3.318,122.699-29.817,167.498-74.616c11.32-11.32,21.601-23.707,30.556-36.818c3.115-4.56,1.944-10.781-2.617-13.896  c-4.559-3.115-10.78-1.943-13.896,2.617c-8.258,12.088-17.74,23.513-28.185,33.957c-82.437,82.437-211.668,92.155-305.008,24.489  l24.413-24.413c33.463,22.84,73.178,35.041,113.772,35.041c4.814,0,9.645-0.171,14.475-0.518  c48.394-3.463,93.962-24.288,128.311-58.637c8.044-8.045,15.437-16.786,21.974-25.984c3.199-4.501,2.144-10.743-2.358-13.942  c-4.5-3.198-10.743-2.143-13.942,2.358c-5.891,8.29-12.557,16.172-19.813,23.429c-60.629,60.63-156.942,70.123-227.994,23.832  l29.1-29.1c21.354,12.145,45.702,18.566,70.333,18.566c4.747,0,9.506-0.238,14.253-0.718c32.405-3.278,62.958-17.789,86.029-40.861  c3.904-3.904,3.904-10.235,0-14.14s-10.235-3.904-14.14,0c-37.45,37.449-95.315,46.044-141.718,22.397l62.373-62.373  c9.633-1.414,18.905-5.798,26.303-13.159c6.559-6.527,10.934-14.646,12.781-23.481l78.38-27.137  c2.004-0.694,3.735-2.007,4.944-3.749l124.858-179.97C512.935,50.845,512.453,45.468,509.033,42.049z M49.083,487.86L23.014,461.79  l118.239-170.427l69.148-23.94c2.037,8.157,6.264,15.637,12.388,21.731c4.43,4.408,9.536,7.74,14.985,10.016L49.083,487.86z   M236.894,274.98c-5.087-5.062-7.89-11.79-7.89-18.943c0-0.136,0.008-0.27,0.01-0.405c0.151-0.806,0.201-1.634,0.147-2.469  c0.647-6.067,3.333-11.691,7.733-16.07c5.268-5.241,12.187-7.863,19.106-7.863s13.839,2.622,19.106,7.863  c5.087,5.062,7.89,11.79,7.89,18.943c0,0.136-0.008,0.27-0.01,0.405c-0.151,0.806-0.201,1.634-0.147,2.469  c-0.647,6.067-3.333,11.691-7.733,16.07C264.571,285.464,247.427,285.463,236.894,274.98z M370.748,220.709L301.6,244.65  c-2.037-8.157-6.264-15.637-12.388-21.731c-4.43-4.408-9.536-7.74-14.985-10.016l188.69-188.69l26.069,26.069L370.748,220.709z" fill="#000000" data-original="#000000" style="" class=""/>
<path xmlns="http://www.w3.org/2000/svg" d="M483.589,350.141c-5.002-2.337-10.953-0.177-13.291,4.826l-0.111,0.24c-2.304,5.019-0.103,10.954,4.916,13.258  c1.352,0.62,2.77,0.914,4.165,0.914c3.787,0,7.41-2.163,9.094-5.83l0.055-0.118C490.753,358.43,488.591,352.479,483.589,350.141z" fill="#000000" data-original="#000000" style="" class=""/>
<path xmlns="http://www.w3.org/2000/svg" d="M24.898,171.13c1.238,0.509,2.521,0.75,3.782,0.75c3.936,0,7.677-2.345,9.272-6.204c2.133-5.074-0.238-10.923-5.31-13.077  c-5.082-2.159-10.952,0.212-13.111,5.295c-0.015,0.036-0.075,0.179-0.089,0.215C17.344,163.215,19.792,169.029,24.898,171.13z" fill="#000000" data-original="#000000" style="" class=""/>
<g xmlns="http://www.w3.org/2000/svg">
</g>
<g xmlns="http://www.w3.org/2000/svg">
</g>
<g xmlns="http://www.w3.org/2000/svg">
</g>
<g xmlns="http://www.w3.org/2000/svg">
</g>
<g xmlns="http://www.w3.org/2000/svg">
</g>
<g xmlns="http://www.w3.org/2000/svg">
</g>
<g xmlns="http://www.w3.org/2000/svg">
</g>
<g xmlns="http://www.w3.org/2000/svg">
</g>
<g xmlns="http://www.w3.org/2000/svg">
</g>
<g xmlns="http://www.w3.org/2000/svg">
</g>
<g xmlns="http://www.w3.org/2000/svg">
</g>
<g xmlns="http://www.w3.org/2000/svg">
</g>
<g xmlns="http://www.w3.org/2000/svg">
</g>
<g xmlns="http://www.w3.org/2000/svg">
</g>
<g xmlns="http://www.w3.org/2000/svg">
</g>
</g></svg>
