<?xml version="1.0"?>
<svg xmlns="http://www.w3.org/2000/svg" xmlns:xlink="http://www.w3.org/1999/xlink" xmlns:svgjs="http://svgjs.com/svgjs" version="1.1" width="512" height="512" x="0" y="0" viewBox="0 0 512 512" style="enable-background:new 0 0 512 512" xml:space="preserve" class=""><g transform="matrix(0.6599999999999999,0,0,0.6599999999999999,87.0399922180176,87.04000000000002)"><g xmlns="http://www.w3.org/2000/svg"><path d="m437.02 74.98c-48.35-48.35-112.64-74.98-181.02-74.98s-132.67 26.63-181.02 74.98-74.98 112.64-74.98 181.02 26.63 132.67 74.98 181.02 112.64 74.98 181.02 74.98 132.67-26.63 181.02-74.98 74.98-112.64 74.98-181.02-26.63-132.67-74.98-181.02z" fill="#e2e0e0" data-original="#e2e0e0" style="" class=""/><path d="m437.02 74.98c-48.35-48.35-112.64-74.98-181.02-74.98-5.36 0-10.69.16-16 .49 62.36 3.82 120.46 29.93 165.02 74.49 48.35 48.35 74.98 112.64 74.98 181.02s-26.63 132.67-74.98 181.02c-44.56 44.56-102.66 70.67-165.02 74.49 5.31.33 10.64.49 16 .49 68.38 0 132.67-26.63 181.02-74.98s74.98-112.64 74.98-181.02-26.63-132.67-74.98-181.02z" fill="#cecccc" data-original="#cecccc" style="" class=""/><path d="m383.33 189.66-53.102 132.769c-1.423 3.558-4.242 6.377-7.8 7.8l-132.768 53.101c-8.16 3.27-16.26-4.83-12.99-12.99l7.33-18.34 120-48 48-120 18.34-7.33c8.16-3.27 16.26 4.83 12.99 12.99z" fill="#cecccc" data-original="#cecccc" style="" class=""/><path d="m382.86 149.94-64 160c-2 5-6.37 8.65-11.64 9.73-1.07.22-2.15.33-3.22.33-4.2 0-8.28-1.66-11.31-4.69l-96-96c-3.81-3.8-5.44-9.26-4.36-14.53s4.73-9.64 9.73-11.64l160-64c5.94-2.37 12.73-.98 17.25 3.55 4.53 4.52 5.92 11.31 3.55 17.25z" fill="#967bb6" data-original="#f79caf" style="" class=""/><path d="m319.67 307.22c-1.08 5.27-4.73 9.64-9.73 11.64l-160 64c-1.92.77-3.94 1.14-5.94 1.14-4.16 0-8.25-1.63-11.31-4.69-4.53-4.52-5.92-11.31-3.55-17.25l64-160c2-5 6.37-8.65 11.64-9.73s10.73.55 14.53 4.36l96 96c3.81 3.8 5.44 9.26 4.36 14.53z" fill="#e3c18b" data-original="#acebe2" style="" class=""/><path d="" style="fill:none;stroke:#000;stroke-width:32;stroke-linecap:round;stroke-linejoin:round;stroke-miterlimit:10" fill=""/><path d="m304 320c-4.095 0-8.189-1.562-11.313-4.687l-96-96c-6.249-6.248-6.249-16.379 0-22.627 6.248-6.249 16.379-6.249 22.627 0l96 96c6.249 6.248 6.249 16.379 0 22.627-3.125 3.125-7.219 4.687-11.314 4.687z" fill="#f5d7ba" data-original="#f3d4b7" style="" class=""/></g></g></svg>
